# Blender v2.92.0 OBJ File: ''
# www.blender.org
mtllib cylinder_14_nocap.mtl
o Cylinder_Cylinder.001
v 0.000000 -1.000000 -1.000000
v 0.000000 1.000000 -1.000000
v 0.433884 1.000000 -0.900969
v 0.433884 -1.000000 -0.900969
v 0.781832 1.000000 -0.623490
v 0.781832 -1.000000 -0.623490
v 0.974928 1.000000 -0.222521
v 0.974928 -1.000000 -0.222521
v 0.974928 1.000000 0.222521
v 0.974928 -1.000000 0.222521
v 0.781832 1.000000 0.623490
v 0.781832 -1.000000 0.623490
v 0.433884 1.000000 0.900969
v 0.433884 -1.000000 0.900969
v 0.000000 1.000000 1.000000
v 0.000000 -1.000000 1.000000
v -0.433884 1.000000 0.900969
v -0.433884 -1.000000 0.900969
v -0.781831 1.000000 0.623490
v -0.781831 -1.000000 0.623490
v -0.974928 1.000000 0.222521
v -0.974928 -1.000000 0.222521
v -0.974928 1.000000 -0.222521
v -0.974928 -1.000000 -0.222521
v -0.781831 1.000000 -0.623490
v -0.781831 -1.000000 -0.623490
v -0.433883 1.000000 -0.900969
v -0.433883 -1.000000 -0.900969
vt 1.000000 0.500000
vt 1.000000 1.000000
vt 0.928571 1.000000
vt 0.928571 0.500000
vt 0.857143 1.000000
vt 0.857143 0.500000
vt 0.785714 1.000000
vt 0.785714 0.500000
vt 0.714286 1.000000
vt 0.714286 0.500000
vt 0.642857 1.000000
vt 0.642857 0.500000
vt 0.571428 1.000000
vt 0.571428 0.500000
vt 0.500000 1.000000
vt 0.500000 0.500000
vt 0.428571 1.000000
vt 0.428571 0.500000
vt 0.357143 1.000000
vt 0.357143 0.500000
vt 0.285714 1.000000
vt 0.285714 0.500000
vt 0.214286 1.000000
vt 0.214286 0.500000
vt 0.142857 1.000000
vt 0.142857 0.500000
vt 0.071428 1.000000
vt 0.071428 0.500000
vt -0.000000 1.000000
vt -0.000000 0.500000
vn 0.2225 0.0000 -0.9749
vn 0.6235 0.0000 -0.7818
vn 0.9010 -0.0000 -0.4339
vn 1.0000 -0.0000 0.0000
vn 0.9010 0.0000 0.4339
vn 0.6235 -0.0000 0.7818
vn 0.2225 -0.0000 0.9749
vn -0.2225 -0.0000 0.9749
vn -0.6235 -0.0000 0.7818
vn -0.9010 0.0000 0.4339
vn -1.0000 0.0000 0.0000
vn -0.9010 -0.0000 -0.4339
vn -0.6235 0.0000 -0.7818
vn -0.2225 0.0000 -0.9749
usemtl None
s 1
f 1/1/1 2/2/1 3/3/1 4/4/1
f 4/4/2 3/3/2 5/5/2 6/6/2
f 6/6/3 5/5/3 7/7/3 8/8/3
f 8/8/4 7/7/4 9/9/4 10/10/4
f 10/10/5 9/9/5 11/11/5 12/12/5
f 12/12/6 11/11/6 13/13/6 14/14/6
f 14/14/7 13/13/7 15/15/7 16/16/7
f 16/16/8 15/15/8 17/17/8 18/18/8
f 18/18/9 17/17/9 19/19/9 20/20/9
f 20/20/10 19/19/10 21/21/10 22/22/10
f 22/22/11 21/21/11 23/23/11 24/24/11
f 24/24/12 23/23/12 25/25/12 26/26/12
f 26/26/13 25/25/13 27/27/13 28/28/13
f 28/28/14 27/27/14 2/29/14 1/30/14
